<svg width="100" height="100" viewBox="0 0 100 100" fill="none" xmlns="http://www.w3.org/2000/svg">
<path d="M36.3538 75.7015C35.2398 76.7774 33.7479 77.3728 32.1992 77.3593C30.6506 77.3459 29.1692 76.7247 28.0741 75.6296C26.979 74.5345 26.3578 73.0531 26.3443 71.5044C26.3309 69.9558 26.9262 68.4638 28.0021 67.3498L63.4407 31.9113C63.9856 31.3471 64.6373 30.8972 65.3579 30.5876C66.0785 30.2781 66.8536 30.1151 67.6378 30.1083C68.4221 30.1015 69.1998 30.2509 69.9257 30.5479C70.6516 30.8449 71.311 31.2835 71.8656 31.838C72.4202 32.3926 72.8588 33.0521 73.1557 33.778C73.4527 34.5038 73.6022 35.2816 73.5953 36.0658C73.5885 36.8501 73.4256 37.6251 73.116 38.3457C72.8065 39.0664 72.3565 39.7181 71.7924 40.263L36.3538 75.7015Z" fill="#D4D4D4"/>
<path d="M73.7994 59.3236C73.7994 60.8219 73.2893 62.2589 72.3811 63.3183C71.473 64.3778 70.2414 64.973 68.9571 64.973C67.6728 64.973 66.4412 64.3778 65.533 63.3183C64.6249 62.2589 64.1147 60.8219 64.1147 59.3236V36.726C64.1147 35.2277 64.6249 33.7907 65.533 32.7313C66.4412 31.6718 67.6728 31.0766 68.9571 31.0766C70.2414 31.0766 71.473 31.6718 72.3811 32.7313C73.2893 33.7907 73.7994 35.2277 73.7994 36.726V48.0248V59.3236Z" fill="#D4D4D4"/>
<path d="M45.0682 39.7928C43.5699 39.7928 42.133 39.2826 41.0735 38.3745C40.014 37.4664 39.4188 36.2347 39.4188 34.9504C39.4188 33.6662 40.014 32.4345 41.0735 31.5264C42.133 30.6183 43.5699 30.1081 45.0682 30.1081H67.6658C69.1641 30.1081 70.6011 30.6183 71.6605 31.5264C72.72 32.4345 73.3152 33.6662 73.3152 34.9504C73.3152 36.2347 72.72 37.4664 71.6605 38.3745C70.6011 39.2826 69.1641 39.7928 67.6658 39.7928H45.0682Z" fill="#D4D4D4"/>
</svg>
