<svg width="170" height="100" viewBox="0 0 170 100" fill="none" xmlns="http://www.w3.org/2000/svg">
<g clip-path="url(#clip0_109_2)">
<path d="M56.3021 1.68468C29.8629 1.68468 8.31451 23.2331 8.31451 49.6723C8.31451 58.1464 10.542 66.3784 14.7064 73.6419L7.92712 98.5315L33.3494 91.8491C40.3708 95.6745 48.2638 97.7083 56.3021 97.7083C82.7413 97.7083 104.29 76.1599 104.29 49.7207C104.29 36.8885 99.3021 24.8311 90.2469 15.7759C85.8075 11.2915 80.5196 7.73599 74.6916 5.31668C68.8636 2.89736 62.6123 1.66269 56.3021 1.68468ZM56.3505 9.77139C67.0037 9.77139 76.9789 13.9358 84.533 21.4899C88.2403 25.196 91.1796 29.5975 93.1822 34.442C95.1848 39.2865 96.2114 44.4786 96.203 49.7207C96.203 71.7049 78.2864 89.5732 56.3021 89.5732C49.1355 89.5732 42.1141 87.6847 36.0127 84.0045L34.56 83.1813L19.4519 87.152L23.471 72.4313L22.5026 70.8818C18.5025 64.5318 16.3868 57.1771 16.4012 49.6723C16.4496 27.6881 34.3179 9.77139 56.3505 9.77139ZM39.3055 27.4944C38.5307 27.4944 37.2233 27.7849 36.1096 28.9955C35.0442 30.2061 31.8967 33.1599 31.8967 39.0191C31.8967 44.9268 36.2064 50.5923 36.7391 51.4155C37.417 52.2387 45.2616 64.3446 57.319 69.4775C60.176 70.7849 62.4035 71.5113 64.1467 72.0439C67.0037 72.964 69.6186 72.8187 71.7008 72.5281C74.0251 72.1892 78.7706 69.6227 79.7875 66.8142C80.8044 64.0056 80.8044 61.6329 80.5138 61.1002C80.1749 60.616 79.4001 60.3254 78.1895 59.7928C76.9789 59.1149 71.0713 56.2095 70.006 55.8221C68.8922 55.4347 68.2143 55.241 67.2942 56.4031C66.5195 57.6137 64.1951 60.3254 63.5172 61.1002C62.7909 61.9234 62.1129 62.0203 60.9508 61.4392C59.6918 60.8097 55.8179 59.5507 51.2661 55.4831C47.6828 52.2871 45.31 48.3649 44.5837 47.1543C44.0026 45.9921 44.5352 45.2658 45.1163 44.7331C45.649 44.2004 46.4237 43.3288 46.908 42.6025C47.5375 41.9245 47.7312 41.3919 48.1186 40.6171C48.506 39.7939 48.3123 39.116 48.0217 38.5349C47.7312 38.0022 45.31 31.9977 44.2931 29.625C43.3246 27.3007 42.3562 27.5912 41.5814 27.5428C40.9035 27.5428 40.1287 27.4944 39.3055 27.4944Z" fill="#D4D4D4"/>
<path d="M126.354 75.7015C125.24 76.7774 123.748 77.3728 122.199 77.3593C120.651 77.3459 119.169 76.7247 118.074 75.6296C116.979 74.5345 116.358 73.0531 116.344 71.5044C116.331 69.9558 116.926 68.4638 118.002 67.3498L153.441 31.9113C153.986 31.3471 154.637 30.8972 155.358 30.5876C156.079 30.2781 156.854 30.1151 157.638 30.1083C158.422 30.1015 159.2 30.2509 159.926 30.5479C160.652 30.8449 161.311 31.2835 161.866 31.838C162.42 32.3926 162.859 33.0521 163.156 33.778C163.453 34.5038 163.602 35.2816 163.595 36.0658C163.589 36.8501 163.426 37.6251 163.116 38.3457C162.806 39.0664 162.357 39.7181 161.792 40.263L126.354 75.7015Z" fill="#D4D4D4"/>
<path d="M163.799 59.3236C163.799 60.8219 163.289 62.2589 162.381 63.3183C161.473 64.3778 160.241 64.973 158.957 64.973C157.673 64.973 156.441 64.3778 155.533 63.3183C154.625 62.2589 154.115 60.8219 154.115 59.3236V36.726C154.115 35.2277 154.625 33.7907 155.533 32.7313C156.441 31.6718 157.673 31.0766 158.957 31.0766C160.241 31.0766 161.473 31.6718 162.381 32.7313C163.289 33.7907 163.799 35.2277 163.799 36.726V48.0248V59.3236Z" fill="#D4D4D4"/>
<path d="M135.068 39.7928C133.57 39.7928 132.133 39.2826 131.073 38.3745C130.014 37.4664 129.419 36.2347 129.419 34.9504C129.419 33.6662 130.014 32.4345 131.073 31.5264C132.133 30.6183 133.57 30.1081 135.068 30.1081H157.666C159.164 30.1081 160.601 30.6183 161.661 31.5264C162.72 32.4345 163.315 33.6662 163.315 34.9504C163.315 36.2347 162.72 37.4664 161.661 38.3745C160.601 39.2826 159.164 39.7928 157.666 39.7928H135.068Z" fill="#D4D4D4"/>
</g>
<defs>
<clipPath id="clip0_109_2">
<rect width="170" height="100" fill="white"/>
</clipPath>
</defs>
</svg>
